<svg width="46" height="46" viewBox="0 0 46 46" fill="none" xmlns="http://www.w3.org/2000/svg">
<rect width="46" height="46" rx="6" fill="#2E2E2E"/>
<path d="M24.7247 31.8436H21.2753C20.6798 31.8436 20.1973 32.3262 20.1973 32.9216C20.1973 33.5171 20.6798 33.9997 21.2753 33.9997H24.7247C25.3202 33.9997 25.8027 33.5171 25.8027 32.9216C25.8026 32.3262 25.3201 31.8436 24.7247 31.8436Z" fill="#F2EFEF"/>
<path d="M31.8146 28.7734L30.025 26.2271V20.6213C30.025 17.1152 27.4403 14.2093 24.0779 13.6877V13.078C24.0779 12.4826 23.5954 12 22.9999 12C22.4045 12 21.9219 12.4826 21.9219 13.078V13.6877C18.5597 14.2091 15.9748 17.1152 15.9748 20.6231V26.2271L14.1852 28.7734C13.9536 29.1023 13.925 29.5331 14.1103 29.8902C14.296 30.2472 14.6648 30.4713 15.067 30.4713H30.9327C31.3348 30.4713 31.7037 30.2472 31.8894 29.8902C32.0747 29.5331 32.0461 29.1023 31.8144 28.7734H31.8146Z" fill="#F2EFEF"/>
</svg>
