<svg width="10" height="10" viewBox="0 0 10 10" fill="none" xmlns="http://www.w3.org/2000/svg">
<path fill-rule="evenodd" clip-rule="evenodd" d="M6.60924 3.1305C6.69884 3.1329 6.78297 3.1649 6.84751 3.22637L7.16004 3.5321C7.30591 3.6745 7.28711 3.92303 7.11831 4.08837L4.37377 6.7681C4.24044 6.89837 3.98831 6.9077 3.84457 6.7681L2.57511 5.52797C2.40631 5.3629 2.38844 5.11463 2.53417 4.9725L2.84591 4.66703C2.99257 4.52463 3.24671 4.54197 3.41537 4.70637L4.10911 5.38423L6.27711 3.26703C6.37297 3.17437 6.49457 3.12797 6.60924 3.1305ZM5.95844 0.151432C5.77924 0.145166 5.59044 0.192099 5.39884 0.292632C4.97937 0.512899 4.66271 0.467699 4.29391 0.292632C4.10017 0.200499 3.90924 0.154633 3.73137 0.159833C3.43417 0.169166 3.16964 0.323833 2.97177 0.646233C2.72097 1.05503 2.41964 1.1577 2.01417 1.19957C1.43137 1.25863 1.06057 1.57877 1.04471 2.1681C1.03217 2.6473 0.823108 2.88637 0.492575 3.12543C0.0175079 3.46837 -0.142092 3.9301 0.138441 4.4489C0.366841 4.8697 0.305908 5.18063 0.138441 5.55303C-0.101159 6.0885 -0.0107587 6.56757 0.492575 6.8765C0.900175 7.12757 1.00297 7.4273 1.04471 7.8337C1.10431 8.4165 1.42471 8.7865 2.01417 8.80303C2.49257 8.81663 2.73297 9.0241 2.97177 9.35543C3.32591 9.84837 3.76684 9.98303 4.29391 9.71037C4.71844 9.4913 5.02724 9.53797 5.39884 9.71037C5.93631 9.9609 6.36831 9.84837 6.72177 9.35543C6.96057 9.02423 7.20097 8.81663 7.67937 8.80303C8.26897 8.78663 8.58924 8.41663 8.64884 7.8337C8.69057 7.4273 8.79337 7.12757 9.20097 6.8765C9.70377 6.5677 9.79551 6.0885 9.55511 5.55303C9.38764 5.18063 9.32724 4.8697 9.55511 4.4489C9.83631 3.9301 9.67671 3.46837 9.20097 3.12543C8.86977 2.88637 8.66217 2.6473 8.64884 2.1681C8.63351 1.57877 8.26217 1.25877 7.67937 1.19957C7.27311 1.1577 6.97311 1.05503 6.72177 0.646233C6.52457 0.323833 6.25577 0.162099 5.95844 0.151432Z" fill="#F2EFEF"/>
</svg>
