<svg width="18" height="18" viewBox="0 0 18 18" fill="none" xmlns="http://www.w3.org/2000/svg">
<path d="M9 18C10.78 18 12.5201 17.4722 14.0001 16.4832C15.4802 15.4943 16.6337 14.0887 17.3149 12.4442C17.9961 10.7996 18.1743 8.99002 17.8271 7.24419C17.4798 5.49836 16.6226 3.89472 15.364 2.63604C14.1053 1.37737 12.5016 0.520203 10.7558 0.172936C9.00998 -0.17433 7.20038 0.00389959 5.55585 0.685088C3.91131 1.36628 2.50571 2.51983 1.51677 3.99987C0.527841 5.47991 0 7.21997 0 9C0 11.387 0.948212 13.6761 2.63604 15.364C4.32387 17.0518 6.61305 18 9 18ZM4.32818 9.23728C4.48148 9.08489 4.68885 8.99935 4.905 8.99935C5.12115 8.99935 5.32852 9.08489 5.48182 9.23728L7.36364 11.1191L12.1009 6.38182C12.2574 6.24778 12.4588 6.17774 12.6647 6.18569C12.8706 6.19365 13.0659 6.27901 13.2116 6.42472C13.3574 6.57044 13.4427 6.76577 13.4507 6.97169C13.4586 7.1776 13.3886 7.37894 13.2545 7.53546L7.93636 12.8536C7.78307 13.006 7.5757 13.0916 7.35954 13.0916C7.14339 13.0916 6.93602 13.006 6.78273 12.8536L4.32818 10.3991C4.25149 10.323 4.19063 10.2325 4.14909 10.1328C4.10755 10.0331 4.08616 9.92619 4.08616 9.81818C4.08616 9.71017 4.10755 9.60323 4.14909 9.50353C4.19063 9.40383 4.25149 9.31334 4.32818 9.23728Z" fill="#F2EFEF"/>
</svg>
