<svg width="46" height="46" viewBox="0 0 46 46" fill="none" xmlns="http://www.w3.org/2000/svg">
<rect x="0.5" y="0.5" width="45" height="45" rx="5.5" fill="#2E2E2E" stroke="#2E2E2E"/>
<path d="M23.25 12C17.0447 12 12 17.0447 12 23.25C12 29.4553 17.0447 34.5 23.25 34.5C29.4553 34.5 34.5 29.4553 34.5 23.25C34.5 17.0447 29.4553 12 23.25 12ZM25.3105 25.3105L17.85 28.6026L21.1421 21.1421L28.6026 17.85L25.3105 25.3105Z" fill="#F2EFEF"/>
<path d="M23.2502 25.0512C24.2449 25.0512 25.0502 24.2459 25.0502 23.2512C25.0502 22.2564 24.2449 21.4512 23.2502 21.4512C22.2555 21.4512 21.4502 22.2564 21.4502 23.2512C21.4502 24.2459 22.2555 25.0512 23.2502 25.0512Z" fill="#F2EFEF"/>
</svg>
