<svg width="16" height="9" viewBox="0 0 16 9" fill="none" xmlns="http://www.w3.org/2000/svg">
<path d="M9.21702 4.5292C9.21668 4.76983 9.14501 5.00496 9.01108 5.20487C8.87714 5.40478 8.68695 5.5605 8.46454 5.65235C8.24213 5.7442 7.99748 5.76806 7.76152 5.72091C7.52555 5.67375 7.30886 5.55771 7.13883 5.38744C6.9688 5.21717 6.85306 5.00031 6.80624 4.76428C6.75942 4.52825 6.78362 4.28363 6.87579 4.06135C6.96795 3.83907 7.12394 3.6491 7.32404 3.51545C7.52414 3.3818 7.75937 3.31047 8 3.31047C8.15997 3.31047 8.31836 3.342 8.46613 3.40327C8.6139 3.46454 8.74814 3.55434 8.86117 3.66753C8.9742 3.78072 9.06381 3.91509 9.12487 4.06294C9.18593 4.2108 9.21724 4.36924 9.21702 4.5292V4.5292ZM15.8281 5.01566C14.9204 6.23639 13.7398 7.22792 12.3806 7.91103C11.0214 8.59414 9.52122 8.94991 8 8.94991C6.47878 8.94991 4.97865 8.59414 3.61943 7.91103C2.26022 7.22792 1.0796 6.23639 0.171895 5.01566C0.0603162 4.86689 0 4.68594 0 4.49998C0 4.31401 0.0603162 4.13307 0.171895 3.98429C1.0796 2.76357 2.26022 1.77204 3.61943 1.08893C4.97865 0.405816 6.47878 0.0500488 8 0.0500488C9.52122 0.0500488 11.0214 0.405816 12.3806 1.08893C13.7398 1.77204 14.9204 2.76357 15.8281 3.98429C15.9397 4.13307 16 4.31401 16 4.49998C16 4.68594 15.9397 4.86689 15.8281 5.01566V5.01566ZM11.0374 4.5292C11.0377 3.92839 10.8599 3.34097 10.5263 2.84125C10.1928 2.34153 9.71853 1.95195 9.16355 1.7218C8.60857 1.49164 7.9978 1.43124 7.40849 1.54825C6.81918 1.66525 6.27781 1.9544 5.85285 2.37912C5.42789 2.80384 5.13844 3.34504 5.0211 3.93429C4.90376 4.52353 4.96381 5.13433 5.19366 5.68944C5.4235 6.24455 5.81281 6.71903 6.31234 7.05286C6.81187 7.38669 7.39919 7.56487 8 7.56487C8.80499 7.56396 9.57677 7.2439 10.1461 6.67484C10.7155 6.10579 11.036 5.33419 11.0374 4.5292Z" fill="#858585"/>
</svg>
