<svg width="12" height="17" viewBox="0 0 12 17" fill="none" xmlns="http://www.w3.org/2000/svg">
<path fill-rule="evenodd" clip-rule="evenodd" d="M3.6499 4.39725C3.6499 3.00707 4.77725 1.8797 6.16724 1.8797C7.55743 1.8797 8.68458 3.00707 8.68458 4.39725V6.68152C8.96732 6.63935 9.25286 6.5899 9.54053 6.53339C9.85388 6.47197 10.1593 6.4039 10.4549 6.33048L10.5645 6.30223V4.39725C10.5645 1.96918 8.59532 0 6.16724 0C3.89498 0 2.02446 1.72474 1.79395 3.93601V4.85745V6.38998L1.89305 6.41374C2.18392 6.4801 2.48637 6.54131 2.79908 6.59697C3.0979 6.65005 3.38149 6.69413 3.65012 6.72923V4.42702L3.6499 4.39725V4.39725Z" fill="#7D7D7D"/>
<path fill-rule="evenodd" clip-rule="evenodd" d="M3.59353 7.63205C3.26028 7.58967 2.94285 7.54174 2.64363 7.48864C2.36985 7.44007 2.08648 7.38292 1.7943 7.31763L1.69519 7.29515L1.32812 7.20782L0.962759 7.11429C0.919525 7.10274 0.875841 7.09717 0.833034 7.09717C0.67165 7.09717 0.513063 7.18086 0.37907 7.31163C0.222595 7.46424 0.102309 7.67637 0.0415261 7.90366C0.0147749 8.00405 0 8.10767 0 8.20976V15.3617C0 15.6582 0.12178 15.9283 0.31741 16.1239C0.5124 16.32 0.78252 16.4414 1.07963 16.4414H10.9204C11.2175 16.4414 11.4876 16.32 11.6834 16.1248C11.8782 15.9283 12 15.6582 12 15.3617V8.20976C12 8.10809 11.9852 8.00448 11.9585 7.90412C11.8977 7.6768 11.7774 7.46445 11.6209 7.31184C11.4869 7.18107 11.3284 7.09717 11.167 7.09717C11.1229 7.09717 11.0783 7.10295 11.0353 7.11429L10.8557 7.16096L10.8523 7.16267L10.6747 7.20761L10.5649 7.23415C10.2757 7.30437 9.99186 7.36707 9.71427 7.42164C9.39705 7.48395 9.07449 7.53916 8.74871 7.58647L8.68494 7.59567C7.85681 7.71297 7.01776 7.77631 6.17101 7.78381C5.33283 7.7913 4.49185 7.74358 3.65026 7.63912L3.59353 7.63205V7.63205ZM4.69842 10.6303C4.69842 9.91138 5.28211 9.32791 6 9.32791C6.71747 9.32791 7.30158 9.91138 7.30158 10.6303C7.30158 11.095 7.058 11.5148 6.66717 11.7476L7.23736 13.9157C7.25643 13.9861 7.24059 14.0604 7.19671 14.1192C7.15132 14.1768 7.08304 14.2108 7.00919 14.2108H4.99014C4.91738 14.2108 4.84868 14.1768 4.80393 14.1192C4.7592 14.0604 4.74443 13.9859 4.76285 13.9152L5.33283 11.7474C4.94157 11.5146 4.69842 11.095 4.69842 10.6303V10.6303Z" fill="#7D7D7D"/>
</svg>
