<svg width="15" height="14" viewBox="0 0 15 14" fill="none" xmlns="http://www.w3.org/2000/svg">
<path fill-rule="evenodd" clip-rule="evenodd" d="M7.58916 0V3.20458C6.80669 3.18632 6.02729 3.10005 5.25977 2.94674C5.79902 1.36287 6.63442 0.234266 7.58916 0ZM3.90768 6.59022H0.960938C1.03371 5.18961 1.52774 3.84363 2.37832 2.72852C2.99527 3.05239 3.64666 3.30593 4.32022 3.48435C4.06552 4.50067 3.92712 5.54264 3.90768 6.59022ZM3.90326 7.33307C3.92404 8.38033 4.06392 9.42183 4.32022 10.4375C3.64654 10.6168 2.99515 10.8714 2.37832 11.1962C1.52795 10.0804 1.03396 8.73407 0.960938 7.33307H3.90326ZM7.58932 7.33313H4.64258C4.66431 8.32203 4.79877 9.30523 5.04333 10.2637C5.88029 10.0927 6.73087 9.99701 7.5849 9.97783L7.58932 7.33313ZM7.58916 10.7187V13.9233C6.63442 13.689 5.79755 12.5678 5.25977 10.9751C6.02743 10.8229 6.80678 10.7371 7.58916 10.7187ZM8.33008 10.7187V13.9233C9.27893 13.689 10.1202 12.5678 10.6595 10.9765C9.89195 10.8232 9.11255 10.7369 8.33008 10.7187ZM8.33008 3.94575C9.1841 3.92656 10.0347 3.8309 10.8716 3.65991C11.1177 4.61817 11.2536 5.60137 11.2768 6.59044H8.33008V3.94575ZM7.5888 6.59037V3.94567C6.73447 3.92424 5.88382 3.82561 5.04724 3.651C4.80257 4.60991 4.66812 5.59361 4.64648 6.58301L7.5888 6.59037ZM8.33008 0V3.20458C9.11246 3.18616 9.89181 3.10038 10.6595 2.94821C10.1217 1.36287 9.28482 0.234266 8.33008 0ZM10.9049 12.3454C11.0939 11.9585 11.2554 11.5587 11.3882 11.149C11.9611 11.3005 12.517 11.5104 13.0472 11.7752C12.2214 12.6497 11.185 13.2976 10.0371 13.6567C10.3832 13.26 10.675 12.819 10.9049 12.3454ZM4.52815 2.77428C4.66097 2.36464 4.82246 1.96486 5.01142 1.5779C5.24131 1.10428 5.53314 0.663317 5.87923 0.266602C4.73135 0.625745 3.6949 1.27359 2.86914 2.14809C3.3994 2.41272 3.95529 2.62254 4.52815 2.77428ZM8.33008 9.97777V7.33307L11.2724 7.34044C11.2508 8.32983 11.1163 9.31353 10.8716 10.2724C10.0351 10.0978 9.18441 9.9992 8.33008 9.97777ZM5.01145 12.3454C4.82048 11.9581 4.65702 11.5579 4.5223 11.1476C3.9495 11.3002 3.39366 11.5105 2.86328 11.7752C3.69233 12.6514 4.73304 13.2994 5.88516 13.6567C5.53699 13.2604 5.24317 12.8194 5.01145 12.3454ZM12.0146 6.59059C11.9938 5.54333 11.854 4.50183 11.5977 3.4862C12.2731 3.30779 12.926 3.05323 13.544 2.72742C14.3944 3.84321 14.8883 5.18959 14.9614 6.59059H12.0146ZM14.9569 7.33313H12.0102C11.9908 8.3807 11.8524 9.42267 11.5977 10.439C12.2712 10.6174 12.9226 10.871 13.5396 11.1948C14.3901 10.0797 14.8842 8.73373 14.9569 7.33313ZM11.3941 2.77575C11.2594 2.36548 11.0959 1.9652 10.905 1.5779C10.6732 1.10394 10.3794 0.662966 10.0312 0.266602C11.1834 0.623922 12.2241 1.27189 13.0531 2.14809C12.5228 2.41284 11.9669 2.62313 11.3941 2.77575Z" fill="#F2EFEF"/>
</svg>
