<svg width="17" height="16" viewBox="0 0 17 16" fill="none" xmlns="http://www.w3.org/2000/svg">
<path d="M9.4665 3.15338L0.295459 11.7453L0 15.994L4.26642 15.9999L13.3843 7.44935L9.4665 3.15338Z" fill="#858585"/>
<path d="M16.6171 3.4253L13.6625 0.234345C13.5972 0.163548 13.5186 0.106413 13.4311 0.0662576C13.3436 0.026102 13.249 0.00372535 13.1528 0.000426845C13.0566 -0.00287167 12.9607 0.0129736 12.8707 0.0470428C12.7807 0.081112 12.6983 0.132726 12.6284 0.198889L10.4479 2.23165L14.3716 6.49807L16.5816 4.42395C16.7141 4.29358 16.7916 4.11742 16.7982 3.93168C16.8048 3.74594 16.7399 3.56473 16.6171 3.4253V3.4253Z" fill="#858585"/>
</svg>
