<svg width="16" height="16" viewBox="0 0 16 16" fill="none" xmlns="http://www.w3.org/2000/svg">
<path d="M3.83918 11.9287C3.54627 10.768 3.3864 9.57773 3.36265 8.38086H0C0.0834588 9.982 0.648009 11.5207 1.61986 12.7959C2.32482 12.4246 3.06926 12.1337 3.83918 11.9287Z" fill="#F2EFEF"/>
<path d="M0 7.53154H3.3677C3.38992 6.33431 3.54809 5.14349 3.83918 3.98198C3.06939 3.77806 2.32495 3.48831 1.61986 3.11816C0.647769 4.39258 0.0831706 5.93085 0 7.53154Z" fill="#F2EFEF"/>
<path d="M7.57473 8.38086H4.20703C4.23187 9.51103 4.38553 10.6347 4.66504 11.73C5.62155 11.5346 6.59365 11.4253 7.56968 11.4034L7.57473 8.38086Z" fill="#F2EFEF"/>
<path d="M7.57428 15.9124V12.25C6.68012 12.2711 5.78944 12.3691 4.91211 12.543C5.52671 14.3632 6.48314 15.6446 7.57428 15.9124Z" fill="#F2EFEF"/>
<path d="M8.42285 12.25V15.9124C9.50725 15.6446 10.4687 14.3632 11.085 12.5447C10.2079 12.3695 9.31711 12.2709 8.42285 12.25Z" fill="#F2EFEF"/>
<path d="M11.3275 4.18262C10.371 4.37803 9.39888 4.48736 8.42285 4.50928V7.5318H11.7906C11.7641 6.40143 11.6087 5.27777 11.3275 4.18262Z" fill="#F2EFEF"/>
<path d="M7.57359 7.53165V4.50913C6.5972 4.48464 5.62503 4.37192 4.66894 4.17236C4.38933 5.26826 4.23566 6.39249 4.21094 7.52323L7.57359 7.53165Z" fill="#F2EFEF"/>
<path d="M7.57428 3.66238V0C6.48314 0.267732 5.5284 1.55756 4.91211 3.3677C5.78928 3.54292 6.68002 3.64151 7.57428 3.66238Z" fill="#F2EFEF"/>
<path d="M8.42285 0V3.66238C9.31701 3.64132 10.2077 3.54329 11.085 3.36939C10.4704 1.55756 9.51399 0.267732 8.42285 0Z" fill="#F2EFEF"/>
<path d="M11.9171 12.7417C11.7653 13.2099 11.5808 13.6667 11.3648 14.109C11.1021 14.6503 10.7686 15.1542 10.373 15.6076C11.6849 15.1972 12.8694 14.4568 13.8132 13.4573C13.2073 13.1546 12.5719 12.9148 11.9171 12.7417Z" fill="#F2EFEF"/>
<path d="M4.07766 3.1706C4.22945 2.70244 4.414 2.24555 4.62996 1.80331C4.89269 1.26203 5.22621 0.758076 5.62175 0.304688C4.30988 0.715137 3.12536 1.45553 2.18164 2.45496C2.78765 2.7574 3.42295 2.99719 4.07766 3.1706Z" fill="#F2EFEF"/>
<path d="M8.42285 8.38086V11.4034C9.39924 11.4279 10.3714 11.5406 11.3275 11.7401C11.6071 10.6442 11.7608 9.52002 11.7855 8.38928L8.42285 8.38086Z" fill="#F2EFEF"/>
<path d="M4.62888 14.1092C4.41063 13.6666 4.22382 13.2091 4.06984 12.7402C3.41522 12.9147 2.77997 13.155 2.17383 13.4576C3.12132 14.4589 4.31069 15.1995 5.62741 15.6078C5.2295 15.1548 4.8937 14.6509 4.62888 14.1092Z" fill="#F2EFEF"/>
<path d="M12.1562 3.98437C12.4492 5.14509 12.609 6.33537 12.6328 7.53224H16.0005C15.917 5.9311 15.3525 4.39238 14.3806 3.11719C13.6744 3.48954 12.9281 3.78047 12.1562 3.98437Z" fill="#F2EFEF"/>
<path d="M15.9954 8.38086H12.6277C12.6055 9.57808 12.4473 10.7689 12.1562 11.9304C12.926 12.1343 13.6705 12.4241 14.3756 12.7942C15.3477 11.5198 15.9123 9.98155 15.9954 8.38086Z" fill="#F2EFEF"/>
<path d="M11.3647 1.80331C11.583 2.24595 11.7698 2.7034 11.9238 3.17229C12.5784 2.99786 13.2136 2.75753 13.8198 2.45496C12.8723 1.45359 11.6829 0.713054 10.3662 0.304688C10.7641 0.757676 11.0999 1.26165 11.3647 1.80331Z" fill="#F2EFEF"/>
</svg>
