<svg width="246" height="24" viewBox="0 0 246 24" fill="none" xmlns="http://www.w3.org/2000/svg">
<path fill-rule="evenodd" clip-rule="evenodd" d="M23.9904 11.5H243.464L241.135 9.17157C240.94 8.97631 240.94 8.65973 241.135 8.46447C241.33 8.2692 241.647 8.2692 241.842 8.46447L245.024 11.6464C245.219 11.8417 245.219 12.1583 245.024 12.3536L241.842 15.5355C241.647 15.7308 241.33 15.7308 241.135 15.5355C240.94 15.3403 240.94 15.0237 241.135 14.8284L243.464 12.5H23.9904C23.7283 18.8955 18.4606 24 12.0007 24C5.54072 24 0.273008 18.8955 0.0108788 12.5H0.000651042V12V11.5H0.0108788C0.273008 5.10446 5.54072 0 12.0007 0C18.4606 0 23.7283 5.10446 23.9904 11.5Z" fill="#F2EFEF"/>
</svg>
