<svg width="51" height="17" viewBox="0 0 51 17" fill="none" xmlns="http://www.w3.org/2000/svg">
<rect width="51" height="17" rx="8.5" fill="#AD72FF" fill-opacity="0.2"/>
<path d="M13.8984 5.39844L12.3086 9.86719L10.6484 5.39844H9.44141L11.5859 11H12.9844L15.082 5.39844H13.8984ZM15.793 11H16.8711V5.39844H15.793V11ZM17.7578 9.12109C17.8047 10.3047 18.5312 11.0781 20.0391 11.0781C21.3828 11.0898 22.2031 10.3203 22.1914 9.35938C22.1914 8.48047 21.6367 7.96094 20.6406 7.76172L19.8008 7.59375C19.3164 7.49609 19.1211 7.32422 19.1211 6.96094C19.1211 6.59766 19.4961 6.28125 20.0781 6.28125H20.1602C20.7539 6.28125 21.1641 6.59375 21.1992 7.16016H22.2812C22.293 6.09766 21.4883 5.30859 20.1602 5.32031C18.8359 5.30469 18.0234 6.14844 18.0391 7C18.0391 7.85547 18.5 8.41016 19.4805 8.61719L20.4805 8.82422C20.9609 8.92188 21.1133 9.10156 21.1133 9.44141C21.1133 9.8125 20.7852 10.1211 20.1992 10.1211H20.1211C19.3008 10.1211 18.8789 9.69531 18.8398 9.12109H17.7578ZM23.2539 11H24.332V5.39844H23.2539V11ZM27.0664 11H28.1484V6.35938H30.0938V5.39844H25.1328V6.35938H27.0664V11ZM30.332 8.19922C30.3164 9.96484 31.457 11.0977 33.0508 11.0781C34.6445 11.0977 35.793 9.96484 35.7734 8.19922C35.793 6.43359 34.6445 5.30078 33.0508 5.32031C31.457 5.30078 30.3164 6.43359 30.332 8.19922ZM33.0117 10.1211C32.0156 10.1211 31.4141 9.39453 31.4141 8.19922C31.4141 7 32.0156 6.28125 33.0117 6.28125H33.0938C34.0898 6.28125 34.6914 7 34.6914 8.19922C34.6914 9.39453 34.0898 10.1211 33.0938 10.1211H33.0117ZM36.7773 11H37.8555V8.87891H39.418C39.8203 8.87891 39.9375 8.99609 39.9375 9.39844V11H41.0156V9.12891C41.0156 8.60156 40.7266 8.33594 40.1445 8.33594C40.7852 8.09766 41.0977 7.63672 41.0977 6.92188C41.1172 6.05859 40.3164 5.38672 39.3789 5.39844H36.7773V11ZM37.8555 7.9375V6.35938H39.0586C39.6992 6.35938 40.0156 6.61328 40.0156 7.12891C40.0156 7.65625 39.6875 7.9375 39.0586 7.9375H37.8555Z" fill="#AD72FF"/>
</svg>
