<svg width="67" height="17" viewBox="0 0 67 17" fill="none" xmlns="http://www.w3.org/2000/svg">
<rect width="67" height="17" rx="8.5" fill="#AD72FF" fill-opacity="0.2"/>
<path d="M9.69141 8.19922C9.67969 9.91797 10.6836 11.0938 12.3711 11.0781C13.8125 11.0898 14.6523 10.2695 14.7227 9.16016H13.6445C13.5234 9.78516 13.0938 10.1211 12.4102 10.1211H12.332C11.4062 10.1211 10.7734 9.38281 10.7734 8.19922C10.7617 7.01953 11.4141 6.26953 12.332 6.28125H12.4102C13.0859 6.28125 13.5234 6.62891 13.6445 7.23828H14.7227C14.6562 6.17188 13.8047 5.30469 12.3711 5.32031C10.6836 5.30469 9.67969 6.48047 9.69141 8.19922ZM15.3711 8.19922C15.3555 9.96484 16.4961 11.0977 18.0898 11.0781C19.6836 11.0977 20.832 9.96484 20.8125 8.19922C20.832 6.43359 19.6836 5.30078 18.0898 5.32031C16.4961 5.30078 15.3555 6.43359 15.3711 8.19922ZM18.0508 10.1211C17.0547 10.1211 16.4531 9.39453 16.4531 8.19922C16.4531 7 17.0547 6.28125 18.0508 6.28125H18.1328C19.1289 6.28125 19.7305 7 19.7305 8.19922C19.7305 9.39453 19.1289 10.1211 18.1328 10.1211H18.0508ZM26.2656 5.39844L24.9023 9.79297L23.4961 5.39844H21.8164V11H22.8711V6.57812L24.3047 11H25.4883L26.8789 6.59375V11H27.9375V5.39844H26.2656ZM33.7031 5.39844L32.3398 9.79297L30.9336 5.39844H29.2539V11H30.3086V6.57812L31.7422 11H32.9258L34.3164 6.59375V11H35.375V5.39844H33.7031ZM36.6445 9.03906C36.6445 10.3516 37.3594 11.0781 38.8438 11.0781C40.3281 11.0781 41.043 10.3516 41.043 9.03906V5.39844H39.9648V8.87891C39.9648 9.75 39.6133 10.1211 38.8828 10.1211H38.8047C38.0703 10.1211 37.7227 9.75 37.7227 8.87891V5.39844H36.6445V9.03906ZM43.7305 11H44.8125V6.35938H46.7578V5.39844H41.7969V6.35938H43.7305V11ZM47.5586 11H51.8789V10.0391H48.6367V8.60938H51.3164V7.64844H48.6367V6.35938H51.7969V5.39844H47.5586V11ZM52.8477 11H53.9258V8.87891H55.4883C55.8906 8.87891 56.0078 8.99609 56.0078 9.39844V11H57.0859V9.12891C57.0859 8.60156 56.7969 8.33594 56.2148 8.33594C56.8555 8.09766 57.168 7.63672 57.168 6.92188C57.1875 6.05859 56.3867 5.38672 55.4492 5.39844H52.8477V11ZM53.9258 7.9375V6.35938H55.1289C55.7695 6.35938 56.0859 6.61328 56.0859 7.12891C56.0859 7.65625 55.7578 7.9375 55.1289 7.9375H53.9258Z" fill="#AD72FF"/>
</svg>
