<svg width="44" height="17" viewBox="0 0 44 17" fill="none" xmlns="http://www.w3.org/2000/svg">
<rect width="44" height="17" rx="8.5" fill="#AD72FF" fill-opacity="0.2"/>
<path d="M9.70312 9.12109C9.75 10.3047 10.4766 11.0781 11.9844 11.0781C13.3281 11.0898 14.1484 10.3203 14.1367 9.35938C14.1367 8.48047 13.582 7.96094 12.5859 7.76172L11.7461 7.59375C11.2617 7.49609 11.0664 7.32422 11.0664 6.96094C11.0664 6.59766 11.4414 6.28125 12.0234 6.28125H12.1055C12.6992 6.28125 13.1094 6.59375 13.1445 7.16016H14.2266C14.2383 6.09766 13.4336 5.30859 12.1055 5.32031C10.7812 5.30469 9.96875 6.14844 9.98438 7C9.98438 7.85547 10.4453 8.41016 11.4258 8.61719L12.4258 8.82422C12.9062 8.92188 13.0586 9.10156 13.0586 9.44141C13.0586 9.8125 12.7305 10.1211 12.1445 10.1211H12.0664C11.2461 10.1211 10.8242 9.69531 10.7852 9.12109H9.70312ZM16.457 11H17.5391V6.35938H19.4844V5.39844H14.5234V6.35938H16.457V11ZM23.4766 11H24.6211L22.4609 5.39844H21.1953L18.9805 11H20.1172L20.6211 9.67969H22.9727L23.4766 11ZM20.9844 8.71875L21.793 6.59375L22.6055 8.71875H20.9844ZM25.3242 11H26.4023V8.76172H29.0039V7.80078H26.4023V6.35938H29.4023V5.39844H25.3242V11ZM30.2539 11H31.332V8.76172H33.9336V7.80078H31.332V6.35938H34.332V5.39844H30.2539V11Z" fill="#AD72FF"/>
</svg>
