<svg width="54" height="13" viewBox="0 0 54 13" fill="none" xmlns="http://www.w3.org/2000/svg">
<path d="M5.10607 1.93296H5.28176C6.67633 1.93296 7.69754 2.725 7.78539 4.07439H9.93397C9.93397 1.67629 8.12579 -0.0251226 5.24516 0.000545198C2.43774 -0.0361231 0.585643 1.78262 0.622246 3.71137C0.658848 5.64012 1.6947 6.87951 3.814 7.32687L5.95159 7.77055C7.1302 8.01623 7.60238 8.50392 7.60238 9.37295C7.60238 10.308 6.76417 11.067 5.32569 11.067H5.15C3.29058 11.067 2.1925 10.1247 2.1376 8.65059H0C0.0878464 11.3677 1.83013 12.9994 5.01091 12.9994C7.90984 13.0251 9.76925 11.4374 9.76925 9.24095C9.76925 7.23886 8.54672 6.06914 6.32128 5.61812L4.39232 5.22944C3.29424 5.00943 2.78546 4.53274 2.78546 3.6527C2.77814 2.69933 3.69321 1.93296 5.10607 1.93296Z" fill="#F2EFEF"/>
<path d="M24.8914 6.9419C24.8914 4.93981 23.4675 3.61609 21.1872 3.61609C19.0862 3.61609 17.5855 4.83347 17.4427 6.51655H19.5034C19.584 5.81985 20.2355 5.3175 21.1176 5.3175H21.2677C21.4871 5.30726 21.7062 5.34414 21.9102 5.42565C22.1142 5.50716 22.2985 5.63143 22.4507 5.79012C22.6028 5.94881 22.7194 6.13825 22.7925 6.34576C22.8656 6.55326 22.8936 6.77402 22.8746 6.99324V7.23891L20.5356 7.43325C19.6956 7.48201 18.8869 7.76946 18.204 8.26196C17.8909 8.50668 17.6421 8.82435 17.4795 9.18734C17.3168 9.55033 17.2451 9.94765 17.2707 10.3447C17.2451 11.8884 18.5774 13.0178 20.1989 12.9995C20.7714 13.0096 21.3371 12.8733 21.8424 12.6035C22.2956 12.3655 22.6753 12.0079 22.9404 11.5694V11.7821C22.9533 12.1307 22.985 12.4784 23.0356 12.8235H24.9755C24.9001 12.1651 24.8683 11.5024 24.8804 10.8397L24.8914 6.9419ZM22.8746 9.32167C22.9075 10.4217 21.7472 11.3238 20.7004 11.2981H20.5613C19.8292 11.2981 19.3021 10.8544 19.3021 10.22C19.296 10.0508 19.3331 9.88283 19.41 9.73202C19.4869 9.58121 19.6009 9.45258 19.7414 9.35834C20.0591 9.14102 20.4298 9.01428 20.8138 8.99166L22.8746 8.80831V9.32167Z" fill="#F2EFEF"/>
<path d="M34.6896 3.79211H32.6289V12.8235H34.6896V3.79211Z" fill="#F2EFEF"/>
<path d="M34.7718 0.176636H32.5391V2.4244H34.7718V0.176636Z" fill="#F2EFEF"/>
<path d="M40.3459 3.61609C37.8313 3.57942 35.9206 5.60718 35.9535 8.30596C35.9206 11.0047 37.8313 13.0325 40.3459 12.9995C42.8678 13.0325 44.7785 11.0047 44.7382 8.30596C44.7785 5.60718 42.8678 3.57942 40.3459 3.61609ZM40.4227 11.3164H40.2763C38.933 11.3164 38.0253 10.2164 38.0253 8.32429C38.0253 6.43221 38.933 5.3285 40.2763 5.3285H40.4227C41.7661 5.3285 42.6775 6.42855 42.6775 8.31696C42.6775 10.2054 41.7661 11.2981 40.4227 11.2981V11.3164Z" fill="#F2EFEF"/>
<path d="M50.8396 3.61608C50.2906 3.59675 49.7462 3.72203 49.2606 3.9794C48.775 4.23677 48.3654 4.61723 48.0725 5.08281V3.79208H46.0117V12.8235H48.0725V7.78892C48.0725 6.3662 49.0607 5.31748 50.221 5.31748H50.3601C51.407 5.31748 51.9377 6.00685 51.9377 7.2389V12.8235H53.9984V6.92355C53.9984 4.9618 52.9223 3.61608 50.8396 3.61608Z" fill="#F2EFEF"/>
<path d="M14.2934 0.858643H12.24V3.78844H10.3477V5.50818H12.24V12.8198H14.2934H16.3651V11.0048H14.2934V5.50818H16.3651V3.78844H14.2934V0.858643Z" fill="#F2EFEF"/>
<path d="M29.3637 0.858643H27.3103V3.78844H25.418V5.50818H27.3103V12.8198H29.3637H31.4355V11.0048H29.3637V5.50818H31.4355V3.78844H29.3637V0.858643Z" fill="#F2EFEF"/>
</svg>
