<svg width="116" height="28" viewBox="0 0 116 28" fill="none" xmlns="http://www.w3.org/2000/svg">
<path d="M10.9686 4.14486H11.346C14.3417 4.14486 16.5355 5.84323 16.7242 8.73674H21.3396C21.3396 3.59447 17.4554 -0.0538705 11.2674 0.00116907C5.23662 -0.0774589 1.25805 3.82249 1.33668 7.95832C1.4153 12.0942 3.64048 14.7518 8.19304 15.711L12.7849 16.6624C15.3167 17.1892 16.331 18.235 16.331 20.0985C16.331 22.1035 14.5304 23.7311 11.4404 23.7311H11.063C7.06866 23.7311 4.70982 21.7104 4.59187 18.5495H0C0.188707 24.3758 3.9314 27.8748 10.7642 27.8748C16.9915 27.9298 20.9858 24.5252 20.9858 19.8154C20.9858 15.5223 18.3596 13.0141 13.579 12.047L9.43536 11.2135C7.07652 10.7417 5.98359 9.71959 5.98359 7.83251C5.96786 5.78819 7.93356 4.14486 10.9686 4.14486Z" fill="#F2EFEF"/>
<path d="M53.4671 14.8855C53.4671 10.5924 50.4085 7.75391 45.5099 7.75391C40.9967 7.75391 37.7729 10.3644 37.4663 13.9734H41.893C42.066 12.4794 43.4656 11.4022 45.3605 11.4022H45.6829C46.1542 11.3803 46.6248 11.4594 47.0631 11.6342C47.5014 11.8089 47.8972 12.0754 48.2241 12.4157C48.551 12.756 48.8013 13.1622 48.9584 13.6071C49.1154 14.0521 49.1755 14.5255 49.1347 14.9955V15.5223L44.1104 15.9391C42.3059 16.0436 40.5686 16.66 39.1017 17.7161C38.429 18.2408 37.8947 18.922 37.5452 19.7004C37.1958 20.4787 37.0418 21.3307 37.0967 22.1821C37.0417 25.4924 39.9038 27.9141 43.387 27.8748C44.6168 27.8965 45.8319 27.6042 46.9174 27.0256C47.891 26.5153 48.7067 25.7486 49.2762 24.8083V25.2644C49.3038 26.0119 49.372 26.7573 49.4806 27.4974H53.6479C53.4859 26.0855 53.4176 24.6645 53.4435 23.2436L53.4671 14.8855ZM49.1347 19.9884C49.2054 22.3473 46.7129 24.2815 44.4642 24.2265H44.1654C42.5928 24.2265 41.4606 23.2751 41.4606 21.9148C41.4474 21.5519 41.5271 21.1917 41.6923 20.8683C41.8574 20.5449 42.1024 20.2691 42.4041 20.067C43.0866 19.6011 43.8829 19.3293 44.7079 19.2808L49.1347 18.8876V19.9884Z" fill="#F2EFEF"/>
<path d="M74.5159 8.13135H70.0891V27.4974H74.5159V8.13135Z" fill="#F2EFEF"/>
<path d="M74.6967 0.378662H69.9004V5.19856H74.6967V0.378662Z" fill="#F2EFEF"/>
<path d="M86.6717 7.75398C81.27 7.67535 77.1656 12.0235 77.2364 17.8105C77.1656 23.5975 81.27 27.9456 86.6717 27.8749C92.0892 27.9456 96.1936 23.5975 96.1071 17.8105C96.1936 12.0235 92.0892 7.67535 86.6717 7.75398ZM86.8369 24.2659H86.5223C83.6367 24.2659 81.6867 21.907 81.6867 17.8498C81.6867 13.7926 83.6367 11.4259 86.5223 11.4259H86.8369C89.7225 11.4259 91.6803 13.7847 91.6803 17.8341C91.6803 21.8834 89.7225 24.2265 86.8369 24.2265V24.2659Z" fill="#F2EFEF"/>
<path d="M109.214 7.75392C108.035 7.71248 106.866 7.9811 105.822 8.53299C104.779 9.08487 103.899 9.9007 103.27 10.899V8.13133H98.8434V27.4974H103.27V16.7018C103.27 13.651 105.393 11.4023 107.886 11.4023H108.184C110.433 11.4023 111.573 12.8805 111.573 15.5224V27.4974H116V14.8462C116 10.6396 113.688 7.75392 109.214 7.75392Z" fill="#F2EFEF"/>
<path d="M30.7042 1.84106H26.2932V8.12344H22.2281V11.8111H26.2932V27.4895H30.7042H35.1546V23.5974H30.7042V11.8111H35.1546V8.12344H30.7042V1.84106Z" fill="#F2EFEF"/>
<path d="M63.0755 1.84106H58.6645V8.12344H54.5994V11.8111H58.6645V27.4895H63.0755H67.5259V23.5974H63.0755V11.8111H67.5259V8.12344H63.0755V1.84106Z" fill="#F2EFEF"/>
</svg>