<svg width="24" height="24" viewBox="0 0 24 24" fill="none" xmlns="http://www.w3.org/2000/svg">
<path fill-rule="evenodd" clip-rule="evenodd" d="M23 12C23 18.0751 18.0751 23 12 23C5.92487 23 1 18.0751 1 12C1 5.92487 5.92487 1 12 1C18.0751 1 23 5.92487 23 12ZM24 12C24 18.6274 18.6274 24 12 24C5.37258 24 0 18.6274 0 12C0 5.37258 5.37258 0 12 0C18.6274 0 24 5.37258 24 12ZM12.3838 17.1367C10.3467 17.1572 8.89062 16.0361 8.91113 14.2998H10.7705C10.8525 15.0381 11.4062 15.5303 12.3154 15.5303H12.4521C13.5254 15.5303 14.0381 14.874 14.0381 14.1973C14.0381 13.7939 13.8809 13.4795 13.5596 13.2539C13.2451 13.0283 12.8281 12.9121 12.3018 12.9121H11.6387V11.2988H12.2266C13.2861 11.2988 13.9766 10.7656 13.9766 9.93164C13.9766 9.22754 13.3545 8.66699 12.5205 8.66699H12.3838C11.6387 8.66699 11.0234 9.14551 10.9551 9.93164H9.0957C9.06836 8.29102 10.5654 7.04004 12.4521 7.06055C14.4824 7.0332 15.8633 8.3252 15.8428 9.78809C15.8428 10.8955 15.1455 11.7842 14.1201 12.0576C15.1592 12.3447 15.9111 13.2334 15.9111 14.3408C15.9316 16.1182 14.4209 17.1504 12.3838 17.1367Z" fill="#F2EFEF"/>
</svg>
