<svg width="24" height="24" viewBox="0 0 24 24" fill="none" xmlns="http://www.w3.org/2000/svg">
<circle cx="12" cy="12" r="11.5" stroke="#F2EFEF"/>
<path d="M11.3926 15.3867L13.9355 13.0488C14.3936 12.6318 14.749 12.2627 15.0088 11.9414C15.2754 11.6201 15.4668 11.292 15.5967 10.957C15.7266 10.6221 15.7949 10.2461 15.7949 9.8291C15.8223 8.24316 14.4688 7.04004 12.5479 7.06055C10.6064 7.04004 9.10938 8.31152 9.13672 10.2666H10.9961C11.0234 9.27539 11.6455 8.66699 12.4932 8.66699H12.6367C13.3955 8.66699 13.9355 9.2002 13.9355 9.9043C13.9355 10.3691 13.751 10.7383 13.3203 11.2236C13.1084 11.4629 12.7871 11.7773 12.3701 12.167L9.03418 15.3047V17H15.9385V15.3867H11.3926Z" fill="#F2EFEF"/>
</svg>
