<svg width="12" height="13" viewBox="0 0 12 13" fill="none" xmlns="http://www.w3.org/2000/svg">
<path d="M11.7386 4.93433H0.260858C0.11679 4.93433 0 5.05112 0 5.19518V6.23861C0 6.38268 0.11679 6.49947 0.260858 6.49947H11.7386C11.8827 6.49947 11.9995 6.38268 11.9995 6.23861V5.19518C11.9995 5.05112 11.8827 4.93433 11.7386 4.93433Z" fill="#F2EFEF"/>
<path d="M11.9723 4.29703C11.9528 4.2579 10.0276 0.500244 6 0.500244C1.97236 0.500244 0.0472275 4.2579 0.0276632 4.29703C0.00765383 4.33664 -0.00177992 4.38075 0.000276754 4.42509C0.00233343 4.46942 0.0158107 4.51247 0.0394018 4.55006C0.0627098 4.58792 0.0953234 4.61919 0.134136 4.64088C0.172949 4.66257 0.216669 4.67396 0.261131 4.67397H11.7389C11.7833 4.67396 11.8271 4.66257 11.8659 4.64088C11.9047 4.61919 11.9373 4.58792 11.9606 4.55006C11.9842 4.51247 11.9977 4.46942 11.9997 4.42509C12.0018 4.38075 11.9923 4.33664 11.9723 4.29703V4.29703ZM6 3.87574C5.78073 3.87574 5.56639 3.81072 5.38407 3.6889C5.20175 3.56708 5.05966 3.39394 4.97575 3.19136C4.89183 2.98878 4.86988 2.76587 4.91266 2.55081C4.95543 2.33576 5.06102 2.13821 5.21607 1.98317C5.37112 1.82812 5.56866 1.72253 5.78371 1.67975C5.99877 1.63698 6.22168 1.65893 6.42426 1.74284C6.62684 1.82675 6.79999 1.96885 6.92181 2.15117C7.04362 2.33348 7.10865 2.54783 7.10865 2.7671C7.10823 3.061 6.99129 3.34275 6.78347 3.55057C6.57565 3.75839 6.2939 3.87533 6 3.87574V3.87574Z" fill="#F2EFEF"/>
<path d="M10.9547 5.97876H9.91125C9.76718 5.97876 9.65039 6.09555 9.65039 6.23962V11.1959C9.65039 11.34 9.76718 11.4568 9.91125 11.4568H10.9547C11.0987 11.4568 11.2155 11.34 11.2155 11.1959V6.23962C11.2155 6.09555 11.0987 5.97876 10.9547 5.97876Z" fill="#F2EFEF"/>
<path d="M2.08944 5.97876H1.04601C0.901946 5.97876 0.785156 6.09555 0.785156 6.23962V11.1959C0.785156 11.34 0.901946 11.4568 1.04601 11.4568H2.08944C2.23351 11.4568 2.3503 11.34 2.3503 11.1959V6.23962C2.3503 6.09555 2.23351 5.97876 2.08944 5.97876Z" fill="#F2EFEF"/>
<path d="M11.7386 10.9346H7.56487V8.58687C7.56487 8.17177 7.39997 7.77367 7.10645 7.48015C6.81293 7.18663 6.41483 7.02173 5.99973 7.02173C5.58462 7.02173 5.18652 7.18663 4.893 7.48015C4.59948 7.77367 4.43458 8.17177 4.43458 8.58687V10.9346H0.260858C0.191675 10.9346 0.125327 10.9621 0.0764073 11.011C0.0274877 11.0599 3.45888e-06 11.1263 0 11.1955V12.2389C3.45888e-06 12.3081 0.0274877 12.3744 0.0764073 12.4233C0.125327 12.4723 0.191675 12.4997 0.260858 12.4997H11.7386C11.8078 12.4997 11.8741 12.4723 11.923 12.4233C11.972 12.3744 11.9994 12.3081 11.9995 12.2389V11.1955C11.9994 11.1263 11.972 11.0599 11.923 11.011C11.8741 10.9621 11.8078 10.9346 11.7386 10.9346Z" fill="#F2EFEF"/>
</svg>
