<svg width="16" height="13" viewBox="0 0 16 13" fill="none" xmlns="http://www.w3.org/2000/svg">
<path d="M15.7693 1.44609C15.188 1.69219 14.5649 1.85742 13.9099 1.93242C14.5784 1.55039 15.0922 0.945703 15.333 0.226172C14.7087 0.578906 14.0143 0.835547 13.2781 0.973828C12.6882 0.373828 11.8476 0 10.9172 0C9.13026 0 7.68127 1.38047 7.68127 3.08438C7.68127 3.32578 7.71076 3.56133 7.76607 3.7875C5.07701 3.65859 2.69397 2.43047 1.0975 0.563672C0.818516 1.0207 0.659975 1.55039 0.659975 2.11523C0.659975 3.18516 1.23023 4.12969 2.09914 4.68399C1.56821 4.66758 1.06923 4.52813 0.632936 4.29727C0.632936 4.31016 0.632936 4.32305 0.632936 4.33594C0.632936 5.83125 1.74887 7.07696 3.22736 7.36172C2.95698 7.43203 2.67062 7.46953 2.37566 7.46953C2.16673 7.46953 1.96395 7.45078 1.76608 7.41328C2.17902 8.63789 3.37361 9.53203 4.78819 9.55664C3.68209 10.384 2.28717 10.8762 0.770585 10.8762C0.508807 10.8762 0.251946 10.8621 0 10.8328C1.43056 11.7094 3.1315 12.2191 4.95903 12.2191C10.9099 12.2191 14.1643 7.51875 14.1643 3.44297C14.1643 3.30938 14.1606 3.17461 14.1557 3.04336C14.7874 2.60859 15.3355 2.06484 15.7693 1.44609Z" fill="#F2EFEF"/>
</svg>
