<svg width="17" height="17" viewBox="0 0 17 17" fill="none" xmlns="http://www.w3.org/2000/svg">
<path d="M16.6228 3.65801C16.0415 3.9041 15.4184 4.06934 14.7634 4.14434C15.4319 3.7623 15.9457 3.15762 16.1866 2.43809C15.5622 2.79082 14.8678 3.04746 14.1317 3.18574C13.5417 2.58574 12.7011 2.21191 11.7707 2.21191C9.98378 2.21191 8.53478 3.59238 8.53478 5.29629C8.53478 5.5377 8.56428 5.77324 8.61958 5.99942C5.93053 5.87051 3.54749 4.64238 1.95102 2.77559C1.67203 3.23262 1.51349 3.7623 1.51349 4.32715C1.51349 5.39707 2.08375 6.3416 2.95265 6.8959C2.42172 6.87949 1.92275 6.74004 1.48645 6.50918C1.48645 6.52207 1.48645 6.53496 1.48645 6.54785C1.48645 8.04317 2.60239 9.28887 4.08088 9.57364C3.8105 9.64395 3.52414 9.68145 3.22918 9.68145C3.02025 9.68145 2.81746 9.6627 2.61959 9.6252C3.03254 10.8498 4.22713 11.7439 5.64171 11.7686C4.53561 12.5959 3.14069 13.0881 1.6241 13.0881C1.36232 13.0881 1.10546 13.074 0.853516 13.0447C2.28407 13.9213 3.98501 14.4311 5.81254 14.4311C11.7634 14.4311 15.0178 9.73067 15.0178 5.65488C15.0178 5.52129 15.0141 5.38652 15.0092 5.25527C15.6409 4.82051 16.189 4.27676 16.6228 3.65801Z" fill="#F2EFEF"/>
</svg>
